<svg width="24" height="24" viewBox="0 0 24 24" version="1.1" xmlns="http://www.w3.org/2000/svg">
  <path d="M 11.989913,0.41665707 A 11.87,11.87 0 0 0 8.2399125,23.556657 c 0.59,0.11 0.81,-0.25 0.81,-0.57 0,-0.32 0,-1 0,-2 -3.3,0.72 -4,-1.59 -4,-1.59 a 3.17,3.17 0 0 0 -1.32,-1.74 c -1.08,-0.74 0.08,-0.72 0.08,-0.72 a 2.49,2.49 0 0 1 1.82,1.22 2.53,2.53 0 0 0 3.46,1 2.55,2.55 0 0 1 0.75,-1.59 c -2.64,-0.3 -5.41,-1.32 -5.41,-5.87 a 4.58,4.58 0 0 1 1.2,-3.2099999 4.29,4.29 0 0 1 0.12,-3.15 c 0,0 1,-0.34 3.24,1.22 a 11.23,11.23 0 0 1 5.9400005,0 c 2.3,-1.56 3.3,-1.22 3.3,-1.22 a 4.29,4.29 0 0 1 0.12,3.15 4.58,4.58 0 0 1 1.22,3.1799999 c 0,4.57 -2.78,5.57 -5.43,5.86 a 2.83,2.83 0 0 1 0.81,2.2 c 0,1.59 0,2.87 0,3.26 0,0.39 0.21,0.69 0.81,0.57 a 11.87,11.87 0 0 0 -3.77,-23.13999993 z" fill="#191717" fill-rule="evenodd" />
</svg>
